:SAMPLES-PER-SECOND 30
:FULLY-SPECIFIED
:DEGREES
523
root  -10.1947 29.9976 -60.0317 31.336 69.5101 27.6543
RightUpLeg  -13.1971 3.40857 -6.38499
RightLeg  81.2286 -0.760021 -3.86004
RightFoot  2.6398 0.0135329 -0.209737
RightToes  -30.408 -0.146741 -0.254792
Spine  7.14486 -1.09763 -5.27945
Spine1  13.878 -1.56575 -9.76972
HEad  10.7887 -28.9551 25.8445
LeftShoulder1  0 -2.42657e-020 -4.95415e-022
LeftArm  0.123859 2.03172 -66.6106
LeftForeArm  44.3348 -47.549 -11.1146
LeftHand  0.222371 -7.70297 -3.6754
RightShoulder  0 2.42657e-020 1.07489e-018
RightArm  -30.055 -13.2472 89.9366
RightForeArm  41.5268 28.2221 5.41344
RightHand  -1.48532 15.219 -10.7183
LeftUpLeg  -32.3939 -1.28684 -9.2829
LeftLeg  51.3968 -6.73661 -7.35738
LeftFoot  -13.3834 0.27409 2.33582
LeftToes  -19.0563 3.33339e-006 -4.73431e-007
524
root  -7.95426 30.1615 -59.4448 27.3668 68.7032 24.6447
RightUpLeg  -20.0362 1.40127 -5.54732
RightLeg  84.1928 -1.23909 -7.95255
RightFoot  -3.32932 0.000973626 0.411137
RightToes  -20.411 -0.0837619 -0.180119
Spine  7.0276 -2.05259 -4.92997
Spine1  13.8578 -3.70259 -9.09027
HEad  13.4188 -27.8734 23.4731
LeftShoulder1  0 -2.42657e-020 -4.95415e-022
LeftArm  -0.941287 0.18598 -68.1197
LeftForeArm  45.2582 -41.0844 -8.82926
LeftHand  0.302804 -8.09852 -4.64938
RightShoulder  0 2.42657e-020 1.07489e-018
RightArm  -31.6641 -17.4819 90.1182
RightForeArm  39.8677 29.6806 5.75369
RightHand  -1.65477 15.5187 -11.7347
LeftUpLeg  -26.4623 -1.91959 -9.26384
LeftLeg  50.2821 -5.15936 -5.43968
LeftFoot  -17.0806 0.332876 2.21638
LeftToes  -17.488 3.33339e-006 -4.73431e-007
525
root  -5.72863 30.7426 -58.6928 21.1094 67.6882 18.8961
RightUpLeg  -25.3792 0.510228 -2.80872
RightLeg  80.3764 -2.3806 -10.3329
RightFoot  -7.83491 0.0701258 1.40169
RightToes  -14.9671 -0.0552148 -0.135177
Spine  6.81036 -3.06785 -4.08779
Spine1  13.5382 -5.92025 -7.65512
HEad  16.1021 -25.5893 20.7015
LeftShoulder1  0 -2.42657e-020 -4.95415e-022
LeftArm  -2.9293 1.35441 -69.821
LeftForeArm  48.1553 -39.7012 -8.39685
LeftHand  0.40544 -8.96776 -5.54092
RightShoulder  0 2.42657e-020 1.07489e-018
RightArm  -29.4633 -21.3011 88.1559
RightForeArm  39.5744 31.9776 6.30794
RightHand  -1.35068 15.4455 -9.56951
LeftUpLeg  -18.6074 -2.49472 -8.30168
LeftLeg  44.9237 -3.54956 -3.11322
LeftFoot  -18.6867 0.250766 1.52401
LeftToes  -15.5077 3.33339e-006 -4.73431e-007
526
root  -3.5142 31.5763 -57.7752 13.4761 65.9554 11.0576
RightUpLeg  -28.463 1.17128 1.44185
RightLeg  70.1386 -4.70662 -10.8224
RightFoot  -9.32005 0.122672 1.88255
RightToes  -13.8594 -0.0499359 -0.125711
Spine  6.45065 -3.81473 -2.88446
Spine1  12.8347 -7.58379 -5.52853
HEad  18.0264 -24.4201 19.6713
LeftShoulder1  0 -2.42657e-020 -4.95415e-022
LeftArm  -5.16134 4.81155 -71.912
LeftForeArm  49.5917 -42.3631 -9.23329
LeftHand  0.435438 -9.77394 -5.46325
RightShoulder  0 2.42657e-020 1.07489e-018
RightArm  -26.362 -24.8796 84.86
RightForeArm  39.5236 34.4233 6.93029
RightHand  -0.97851 15.9302 -6.61752
LeftUpLeg  -9.88743 -3.1783 -6.55017
LeftLeg  36.772 -1.39546 -0.913951
LeftFoot  -17.5352 0.0793588 0.514538
LeftToes  -14.2512 3.33339e-006 -4.73431e-007
527
root  -1.28814 32.464 -56.8149 8.86255 63.2 5.92491
RightUpLeg  -28.982 2.62329 4.83707
RightLeg  54.5642 -7.51318 -9.18895
RightFoot  -10.4301 0.161305 2.14485
RightToes  -13.7249 -0.0493077 -0.124555
Spine  5.93877 -4.16545 -1.90781
Spine1  11.8105 -8.40445 -3.75899
HEad  19.2287 -25.7021 19.497
LeftShoulder1  0 -2.42657e-020 -4.95415e-022
LeftArm  -7.34349 8.464 -74.5381
LeftForeArm  49.8079 -45.4871 -10.3175
LeftHand  0.413524 -9.73477 -5.22679
RightShoulder  0 2.42657e-020 1.07489e-018
RightArm  -23.4451 -28.3212 81.2505
RightForeArm  37.8716 36.3273 7.4433
RightHand  -0.807214 16.3567 -5.24434
LeftUpLeg  -2.11619 -1.75443 -5.26957
LeftLeg  29.0896 -0.695106 -0.333749
LeftFoot  -12.0343 0.0173672 0.164755
LeftToes  -16.6771 3.33339e-006 -4.73431e-007
528
root  0.96668 33.1762 -55.8662 8.10516 60.5399 4.77328
RightUpLeg  -27.3471 3.20682 6.6503
RightLeg  35.1914 -8.50486 -5.19194
RightFoot  -8.46307 0.0798833 1.45731
RightToes  -16.6782 -0.0637256 -0.149592
Spine  5.311 -4.40146 -1.49687
Spine1  10.5974 -8.91325 -3.05078
HEad  20.6858 -29.3349 20.4893
LeftShoulder1  0 -2.42657e-020 -4.95415e-022
LeftArm  -9.41366 11.9395 -76.8985
LeftForeArm  49.8358 -48.8958 -11.6538
LeftHand  0.396936 -9.63992 -5.07826
RightShoulder  0 2.42657e-020 1.07489e-018
RightArm  -24.1622 -31.5598 79.0946
RightForeArm  37.6387 37.1712 7.67839
RightHand  -0.614749 17.0331 -3.73493
LeftUpLeg  2.70087 3.5665 -4.00759
LeftLeg  25.9216 -4.51555 -1.847
LeftFoot  -3.79336 0.010091 0.304712
LeftToes  -23.3592 3.33339e-006 -4.73431e-007
529
root  3.14505 33.4598 -55.1162 11.0508 58.8113 6.80823
RightUpLeg  -27.6679 -0.375843 8.01948
RightLeg  18.4614 -6.54574 -1.72193
RightFoot  1.70923 0.00949501 -0.258864
RightToes  -27.2707 -0.125585 -0.232556
Spine  4.36024 -4.84066 -1.54282
Spine1  8.77517 -9.77549 -3.21156
HEad  21.594 -33.7581 21.9508
LeftShoulder1  0 -2.42657e-020 -4.95415e-022
LeftArm  -12.1779 15.2959 -78.9213
LeftForeArm  51.5697 -53.1981 -13.6375
LeftHand  0.426521 -9.84366 -5.32359
RightShoulder  0 2.42657e-020 1.07489e-018
RightArm  -31.3686 -34.5213 78.931
RightForeArm  38.6386 37.6134 7.80249
RightHand  -0.33563 18.9827 -1.63784
LeftUpLeg  2.52041 10.0121 -3.0558
LeftLeg  30.7015 -12.0301 -6.07082
LeftFoot  3.34698 0.0245856 -0.841502
LeftToes  -29.946 3.33339e-006 -4.73431e-007
530
root  5.28438 33.271 -54.4842 14.2968 57.3985 10.0329
RightUpLeg  -30.4967 -10.6793 12.5227
RightLeg  9.43759 -1.97787 -0.197722
RightFoot  16.1867 0.144656 -0.639649
RightToes  -34.9739 -0.179628 -0.285007
Spine  4.01105 -5.27106 -1.77564
Spine1  8.13665 -10.5789 -3.73915
HEad  18.6157 -37.1345 24.7979
LeftShoulder1  0 -2.42657e-020 -4.95415e-022
LeftArm  -14.9333 16.4417 -80.8041
LeftForeArm  53.5553 -57.1642 -15.877
LeftHand  0.396324 -9.83144 -4.97904
RightShoulder  0 2.42657e-020 1.07489e-018
RightArm  -39.7891 -35.839 78.6617
RightForeArm  37.5719 39.0681 8.22687
RightHand  0.0612156 19.8976 0.719234
LeftUpLeg  0.144877 12.5233 -3.33026
LeftLeg  42.9206 -19.2427 -15.0702
LeftFoot  8.54816 0.290954 -3.89165
LeftToes  -43.8234 3.33339e-006 -4.73431e-007
531
root  7.4779 32.5985 -53.9073 16.8079 56.0822 14.7276
RightUpLeg  -34.6335 -21.914 17.9011
RightLeg  7.89321 -1.19394 -0.0863942
RightFoot  25.9738 0.230727 -0.622841
RightToes  -37.4973 -0.198806 -0.300553
Spine  4.50561 -5.83783 -2.45301
Spine1  9.21446 -11.6374 -5.1668
HEad  13.7645 -40.672 29.2099
LeftShoulder1  0 -2.42657e-020 -4.95415e-022
LeftArm  -17.1329 15.5305 -81.199
LeftForeArm  54.8704 -60.4044 -18.1255
LeftHand  0.355797 -9.68596 -4.57063
RightShoulder  0 2.42657e-020 1.07489e-018
RightArm  -50.5644 -35.0408 78.9058
RightForeArm  35.9067 41.206 8.88456
RightHand  0.535881 20.2706 3.36811
LeftUpLeg  -1.84201 10.9245 -5.55187
LeftLeg  58.3591 -19.4596 -25.1875
LeftFoot  4.37497 0.10408 -2.7243
LeftToes  -50.6138 3.33339e-006 -4.73431e-007
532
root  9.60422 31.5594 -53.3536 17.211 55.8861 18.4683
RightUpLeg  -37.4501 -25.9252 19.1259
RightLeg  13.3463 -8.01744 -1.35786
RightFoot  21.4993 0.667114 -3.13519
RightToes  -0.308515 -0.000775542 -0.00291707
Spine  5.58332 -6.44242 -2.98923
Spine1  11.41 -12.8682 -6.19545
HEad  8.18723 -45.6549 34.0084
LeftShoulder1  0 -2.42657e-020 -4.95415e-022
LeftArm  -17.0687 11.8812 -79.9686
LeftForeArm  53.051 -60.5247 -18.2234
LeftHand  0.290065 -9.21556 -3.9708
RightShoulder  0 2.42657e-020 1.07489e-018
RightArm  -59.4403 -33.4307 78.2401
RightForeArm  31.9984 43.5724 9.6678
RightHand  0.401762 19.4238 2.71805
LeftUpLeg  -4.35349 8.49528 -7.00942
LeftLeg  71.6586 -9.15214 -21.4815
LeftFoot  2.13124 0.0186907 -1.00482
LeftToes  -48.6361 3.33339e-006 -4.73431e-007
533
root  11.6063 30.1645 -52.8004 16.5206 56.7637 20.1561
RightUpLeg  -39.2849 -22.4433 15.5119
RightLeg  27.7236 -13.7244 -6.04176
RightFoot  -1.57584 -0.000414089 0.347593
RightToes  28.5031 0.00232708 0.275989
Spine  6.5326 -6.73107 -2.66262
Spine1  13.1703 -13.6148 -5.33511
HEad  0.24587 -51.6898 39.9774
LeftShoulder1  0 -2.42657e-020 -4.95415e-022
LeftArm  -15.0675 5.55653 -78.9702
LeftForeArm  49.4109 -56.2255 -15.3118
LeftHand  0.242903 -8.87625 -3.50148
RightShoulder  0 2.42657e-020 1.07489e-018
RightArm  -67.0392 -32.3024 75.4185
RightForeArm  26.686 45.3151 10.2862
RightHand  0.412588 19.0249 2.83283
LeftUpLeg  -9.31652 5.57084 -6.29046
LeftLeg  86.0558 -1.65525 -12.2247
LeftFoot  -2.19731 0.00654945 0.341507
LeftToes  -36.7894 3.33339e-006 -4.73431e-007
534
root  13.0701 28.7255 -52.3393 13.4512 56.1969 17.5832
RightUpLeg  -44.4622 -15.2818 13.8818
RightLeg  45.6828 -16.1705 -14.0942
RightFoot  -11.2113 0.384813 4.29694
RightToes  27.7388 0.00520188 0.268715
Spine  7.16681 -6.84749 -1.69207
Spine1  14.1356 -14.2085 -2.98362
HEad  -6.16091 -56.2044 46.6061
LeftShoulder1  0 -2.42657e-020 -4.95415e-022
LeftArm  -15.2968 -0.737078 -78.3422
LeftForeArm  47.576 -49.1298 -11.7571
LeftHand  0.217721 -8.95717 -3.15153
RightShoulder  0 2.42657e-020 1.07489e-018
RightArm  -76.4038 -25.3427 70.0315
RightForeArm  22.3 39.9337 8.49508
RightHand  0.23888 19.4503 1.76434
LeftUpLeg  -19.497 1.3175 -4.21967
LeftLeg  99.8691 0.509468 -4.62593
LeftFoot  -8.48265 0.0358537 0.483448
LeftToes  -22.6869 3.33339e-006 -4.73431e-007
535
root  14.2185 27.8469 -51.8878 5.08704 50.9848 10.2981
RightUpLeg  -45.3003 -12.8769 16.6115
RightLeg  55.5357 -11.0798 -13.7988
RightFoot  -13.4645 0.433639 4.05007
RightToes  26.7861 0.00607994 0.259616
Spine  9.21586 -6.75422 -0.597012
Spine1  17.6823 -14.7622 0.0696529
HEad  -9.72278 -56.1209 51.2705
LeftShoulder1  0 -2.42657e-020 -4.95415e-022
LeftArm  -18.5659 -3.94735 -75.8056
LeftForeArm  45.0269 -43.1955 -9.51929
LeftHand  0.0128291 -9.1273 -0.53108
RightShoulder  0 2.42657e-020 1.07489e-018
RightArm  -89.2049 -7.1061 63.2006
RightForeArm  28.5266 21.7461 4.02699
RightHand  -0.726159 19.245 -3.91241
LeftUpLeg  -30.0766 -2.89276 -0.0447756
LeftLeg  106.389 -0.455119 2.04778
LeftFoot  -13.7585 -0.104437 -0.86564
LeftToes  -8.85906 3.33339e-006 -4.73431e-007
536
root  15.3176 27.0187 -51.5886 1.87445 41.2412 8.71172
RightUpLeg  -44.8022 -11.3625 17.8298
RightLeg  61.9103 -5.7225 -9.23663
RightFoot  -17.021 0.360011 2.78319
RightToes  28.9844 0.00118714 0.280558
Spine  11.4447 -5.09082 -0.143642
Spine1  21.7196 -11.0226 0.0902462
HEad  -10.4734 -55.1229 52.8058
LeftShoulder1  0 -2.42657e-020 -4.95415e-022
LeftArm  -20.01 -4.93433 -71.5673
LeftForeArm  43.3798 -40.7842 -8.73793
LeftHand  -0.130975 -8.46797 1.40023
RightShoulder  0 2.42657e-020 1.07489e-018
RightArm  -99.5953 7.67531 62.0128
RightForeArm  30.5637 14.2209 2.55629
RightHand  -0.882519 18.5214 -5.04031
LeftUpLeg  -39.8085 -4.49283 3.39007
LeftLeg  104.078 -1.08257 5.91655
LeftFoot  -17.1951 -0.33919 -2.24316
LeftToes  -0.0843986 3.33339e-006 -4.73431e-007
